<svg width="30" height="28" viewBox="0 0 30 28" fill="none" xmlns="http://www.w3.org/2000/svg">
<g filter="url(#filter0_d)">
<path fill-rule="evenodd" clip-rule="evenodd" d="M15.8505 19.6734C15.6152 19.8841 15.3132 20 15 20C14.687 20 14.3848 19.8841 14.1497 19.6738C13.2589 18.8778 12.4007 18.1304 11.6434 17.4711L11.6431 17.4708C9.42714 15.5411 7.51347 13.8747 6.18184 12.2327C4.69321 10.3974 4 8.65709 4 6.75591C4 4.90876 4.61969 3.20464 5.7451 1.95726C6.88394 0.695126 8.44676 0 10.1457 0C11.4156 0 12.5786 0.410249 13.6023 1.21926C14.1191 1.62762 14.5873 2.1274 15 2.71036C15.4126 2.1274 15.8809 1.62762 16.3975 1.21926C17.4212 0.410249 18.5842 0 19.8541 0C21.5532 0 23.1159 0.695126 24.2547 1.95726C25.3801 3.20464 26 4.90876 26 6.75591C26 8.65709 25.3066 10.3974 23.818 12.2329C22.4863 13.8747 20.5723 15.5415 18.3559 17.4714L18.3521 17.4749C17.5961 18.1331 16.7392 18.8794 15.8505 19.6734ZM22.6988 3.41238C21.8721 2.50156 20.7356 2 19.4985 2C18.5924 2 17.7604 2.29265 17.0257 2.86974C16.3709 3.38426 15.9148 4.03467 15.6476 4.48976C15.5101 4.72379 15.268 4.86348 15 4.86348C14.732 4.86348 14.4899 4.72379 14.3524 4.48976C14.0851 4.03467 13.629 3.38426 12.9743 2.86974C12.2396 2.29265 11.4076 2 10.5013 2C9.26438 2 8.12778 2.50156 7.30118 3.41238C6.46214 4.33696 6 5.61502 6 7.01129C6 8.48451 6.53898 9.80208 7.7473 11.2834C8.91427 12.7139 10.6494 14.2162 12.6585 15.9557L12.6639 15.9604C13.3686 16.5702 14.167 17.2616 15.0017 18C15.8314 17.263 16.6286 16.5728 17.3319 15.9639L17.3356 15.9608L17.3368 15.9597C19.3478 14.2186 21.0847 12.7149 22.2525 11.2834C23.461 9.80208 24 8.48451 24 7.01129C24 5.61502 23.5379 4.33696 22.6988 3.41238Z" fill="white"/>
</g>
<defs>
<filter id="filter0_d" x="0" y="0" width="30" height="28" filterUnits="userSpaceOnUse" color-interpolation-filters="sRGB">
<feFlood flood-opacity="0" result="BackgroundImageFix"/>
<feColorMatrix in="SourceAlpha" type="matrix" values="0 0 0 0 0 0 0 0 0 0 0 0 0 0 0 0 0 0 127 0"/>
<feOffset dy="4"/>
<feGaussianBlur stdDeviation="2"/>
<feColorMatrix type="matrix" values="0 0 0 0 0 0 0 0 0 0 0 0 0 0 0 0 0 0 0.25 0"/>
<feBlend mode="normal" in2="BackgroundImageFix" result="effect1_dropShadow"/>
<feBlend mode="normal" in="SourceGraphic" in2="effect1_dropShadow" result="shape"/>
</filter>
</defs>
</svg>
