<svg width="30" height="26" viewBox="0 0 30 26" fill="none" xmlns="http://www.w3.org/2000/svg">
<g filter="url(#filter0_d)">
<path fill-rule="evenodd" clip-rule="evenodd" d="M6.79428 11.3171C7.06828 11.0065 7.03858 10.5325 6.72794 10.2585C6.10995 9.71341 5.75 8.93297 5.75 8.0928V4.45643C5.75 2.86246 7.0424 1.57007 8.63636 1.57007H16.8182C18.4122 1.57007 19.7045 2.86246 19.7045 4.45643V8.0928C19.7045 9.68676 18.4122 10.9792 16.8182 10.9792H13.1818C12.7676 10.9792 12.4318 11.3149 12.4318 11.7292C12.4318 12.1434 12.7676 12.4792 13.1818 12.4792H16.8182C19.2406 12.4792 21.2045 10.5152 21.2045 8.0928V4.45643C21.2045 2.03404 19.2406 0.0700684 16.8182 0.0700684H8.63636C6.21397 0.0700684 4.25 2.03404 4.25 4.45643V8.0928C4.25 9.36796 4.79816 10.5565 5.73569 11.3834C6.04633 11.6574 6.52027 11.6277 6.79428 11.3171ZM23.2057 6.68667C22.9317 6.99731 22.9614 7.47125 23.2721 7.74525C23.8901 8.29037 24.25 9.0708 24.25 9.91098V13.5473C24.25 15.1413 22.9576 16.4337 21.3636 16.4337H13.1818C11.5878 16.4337 10.2955 15.1413 10.2955 13.5473V9.91098C10.2955 8.31701 11.5878 7.02461 13.1818 7.02461H16.8182C17.2324 7.02461 17.5682 6.68883 17.5682 6.27461C17.5682 5.8604 17.2324 5.52461 16.8182 5.52461H13.1818C10.7594 5.52461 8.79545 7.48858 8.79545 9.91098V13.5473C8.79545 15.9697 10.7594 17.9337 13.1818 17.9337H21.3636C23.786 17.9337 25.75 15.9697 25.75 13.5473V9.91098C25.75 8.63581 25.2018 7.44731 24.2643 6.62034C23.9537 6.34633 23.4797 6.37603 23.2057 6.68667Z" fill="white"/>
</g>
<defs>
<filter id="filter0_d" x="0.25" y="0.0700684" width="29.5" height="25.8636" filterUnits="userSpaceOnUse" color-interpolation-filters="sRGB">
<feFlood flood-opacity="0" result="BackgroundImageFix"/>
<feColorMatrix in="SourceAlpha" type="matrix" values="0 0 0 0 0 0 0 0 0 0 0 0 0 0 0 0 0 0 127 0"/>
<feOffset dy="4"/>
<feGaussianBlur stdDeviation="2"/>
<feColorMatrix type="matrix" values="0 0 0 0 0 0 0 0 0 0 0 0 0 0 0 0 0 0 0.25 0"/>
<feBlend mode="normal" in2="BackgroundImageFix" result="effect1_dropShadow"/>
<feBlend mode="normal" in="SourceGraphic" in2="effect1_dropShadow" result="shape"/>
</filter>
</defs>
</svg>
